<?xml version="1.0" encoding="UTF-8"?>
<svg id="Capa_2" data-name="Capa 2" xmlns="http://www.w3.org/2000/svg" viewBox="0 0 632.18 98.01">
  <defs>
    <style>
      .cls-1 {
        fill: #f7f6f2;
      }
    </style>
  </defs>
  <g id="Capa_1-2" data-name="Capa 1">
    <g>
      <path class="cls-1" d="m61.85,96.63H0V0h15.32v82.97h46.52v13.67Z"/>
      <path class="cls-1" d="m101.74,24.71c8.47,0,15.37,2.21,20.7,6.63,5.34,4.42,8.01,10.76,8.01,19.05v46.25h-14.5v-18.77c-4.33,13.44-13.02,20.15-26.09,20.15-6.07,0-11.13-1.82-15.18-5.45-4.05-3.63-6.07-8.4-6.07-14.29,0-6.9,2.44-12.08,7.31-15.53,4.88-3.45,11.09-5.59,18.64-6.42l13.67-1.38c5.15-.46,7.73-2.76,7.73-6.9,0-3.4-1.31-6.12-3.93-8.14-2.62-2.02-6.06-3.03-10.29-3.03s-7.99,1.1-10.98,3.31c-2.99,2.21-4.9,5.43-5.73,9.67l-14.36-3.45c1.29-6.62,4.74-11.89,10.36-15.81,5.61-3.91,12.52-5.86,20.7-5.86Zm-7.18,61.57c5.98,0,11.04-2.01,15.18-6,4.15-4.01,6.21-8.67,6.21-14.01v-3.86c-1.1,1.84-3.77,2.99-8,3.45l-13.39,1.65c-3.5.47-6.28,1.5-8.35,3.11-2.07,1.61-3.11,3.8-3.11,6.56s1.04,4.97,3.11,6.62c2.07,1.66,4.85,2.49,8.35,2.49Z"/>
      <path class="cls-1" d="m145.36,67.37V26.09h14.5v41.28c0,5.16,1.65,9.32,4.97,12.49,3.31,3.17,7.55,4.76,12.7,4.76s9.25-1.59,12.57-4.76,4.97-7.34,4.97-12.49V26.09h14.5v41.28c0,9.02-3.02,16.38-9.04,22.09-6.03,5.71-13.69,8.56-22.99,8.56s-17.09-2.85-23.12-8.56c-6.03-5.71-9.04-13.07-9.04-22.09Z"/>
      <path class="cls-1" d="m239.78,26.09v18.63c2.3-8.37,5.91-14.03,10.84-16.98,4.92-2.95,10.51-3.68,16.77-2.21v13.81c-7.64-2.12-14.15-1.45-19.54,2-5.38,3.45-8.08,8.58-8.08,15.4v39.89h-14.49V26.09h14.49Z"/>
      <path class="cls-1" d="m306.19,24.71c11.32,0,20.52,4.05,27.61,12.15,7.08,8.1,9.98,17.9,8.7,29.4h-58.39c1.01,5.71,3.63,10.34,7.86,13.87,4.24,3.54,9.34,5.31,15.32,5.31,4.6,0,8.72-1.12,12.36-3.38,3.63-2.25,6.47-5.31,8.49-9.18l12.15,5.38c-3.13,5.99-7.59,10.77-13.39,14.36-5.8,3.59-12.47,5.39-20.01,5.39-10.59,0-19.47-3.5-26.65-10.49-7.18-6.99-10.77-15.69-10.77-26.09s3.52-19.12,10.57-26.16c7.04-7.04,15.76-10.56,26.16-10.56Zm0,12.56c-5.34,0-9.96,1.63-13.87,4.9-3.92,3.27-6.52,7.52-7.8,12.77h43.35c-1.2-5.25-3.75-9.5-7.66-12.77-3.91-3.27-8.58-4.9-14.01-4.9Z"/>
      <path class="cls-1" d="m396.19,24.71c8,0,14.54,2.81,19.6,8.42,5.06,5.62,7.59,12.75,7.59,21.4v42.11h-14.49v-39.89c0-5.43-1.75-9.92-5.25-13.46-3.5-3.54-7.82-5.31-12.98-5.31-5.8,0-10.54,1.78-14.22,5.31-3.68,3.54-5.53,8.03-5.53,13.46v39.89h-14.49V26.09h14.49v18.22c1.94-6.08,5.13-10.86,9.59-14.36,4.47-3.5,9.69-5.25,15.67-5.25Z"/>
      <path class="cls-1" d="m445.2,38.93h-15.05v-12.84h49.42v12.84h-19.88v32.58c0,4.33.97,7.45,2.9,9.39,1.93,1.93,5.02,2.9,9.25,2.9h7.73v12.84h-7.73c-9.11,0-15.83-2.12-20.15-6.35-4.33-4.24-6.49-10.72-6.49-19.47v-31.89Z"/>
      <path class="cls-1" d="m507.59,96.63h-14.49V26.09h14.49v70.54Z"/>
      <path class="cls-1" d="m563.64,24.71c8,0,14.54,2.81,19.6,8.42,5.06,5.62,7.59,12.75,7.59,21.4v42.11h-14.49v-39.89c0-5.43-1.75-9.92-5.25-13.46-3.5-3.54-7.82-5.31-12.98-5.31-5.8,0-10.54,1.78-14.22,5.31-3.68,3.54-5.53,8.03-5.53,13.46v39.89h-14.49V26.09h14.49v18.22c1.94-6.08,5.13-10.86,9.59-14.36,4.47-3.5,9.69-5.25,15.67-5.25Z"/>
      <path class="cls-1" d="m619.43,71.43c-6.91.12-12.42,5.86-12.31,12.81s5.82,12.51,12.73,12.39c6.93-.12,12.44-5.86,12.33-12.81s-5.82-12.51-12.75-12.39Zm.35,21.13c-4.67.08-8.52-3.68-8.6-8.39-.08-4.69,3.65-8.6,8.32-8.67,4.69-.08,8.55,3.7,8.63,8.39.08,4.71-3.65,8.6-8.34,8.68Z"/>
    </g>
  </g>
</svg>